<svg id="visual" viewBox="0 0 900 600" width="900" height="600" xmlns="http://www.w3.org/2000/svg" xmlns:xlink="http://www.w3.org/1999/xlink" version="1.1"><rect x="0" y="0" width="900" height="600" fill="#7E22CE"></rect><path d="M0 195L21.5 202C43 209 86 223 128.8 216.3C171.7 209.7 214.3 182.3 257.2 172.2C300 162 343 169 385.8 170.8C428.7 172.7 471.3 169.3 514.2 175.2C557 181 600 196 642.8 197C685.7 198 728.3 185 771.2 178.5C814 172 857 172 878.5 172L900 172L900 0L878.5 0C857 0 814 0 771.2 0C728.3 0 685.7 0 642.8 0C600 0 557 0 514.2 0C471.3 0 428.7 0 385.8 0C343 0 300 0 257.2 0C214.3 0 171.7 0 128.8 0C86 0 43 0 21.5 0L0 0Z" fill="#7e22ce"></path><path d="M0 162L21.5 169.5C43 177 86 192 128.8 187.2C171.7 182.3 214.3 157.7 257.2 146.3C300 135 343 137 385.8 140.8C428.7 144.7 471.3 150.3 514.2 150.5C557 150.7 600 145.3 642.8 143.5C685.7 141.7 728.3 143.3 771.2 146.7C814 150 857 155 878.5 157.5L900 160L900 0L878.5 0C857 0 814 0 771.2 0C728.3 0 685.7 0 642.8 0C600 0 557 0 514.2 0C471.3 0 428.7 0 385.8 0C343 0 300 0 257.2 0C214.3 0 171.7 0 128.8 0C86 0 43 0 21.5 0L0 0Z" fill="#642cad"></path><path d="M0 146L21.5 140.3C43 134.7 86 123.3 128.8 127.2C171.7 131 214.3 150 257.2 160.7C300 171.3 343 173.7 385.8 166.8C428.7 160 471.3 144 514.2 133C557 122 600 116 642.8 122.5C685.7 129 728.3 148 771.2 153.7C814 159.3 857 151.7 878.5 147.8L900 144L900 0L878.5 0C857 0 814 0 771.2 0C728.3 0 685.7 0 642.8 0C600 0 557 0 514.2 0C471.3 0 428.7 0 385.8 0C343 0 300 0 257.2 0C214.3 0 171.7 0 128.8 0C86 0 43 0 21.5 0L0 0Z" fill="#4f2f8b"></path><path d="M0 75L21.5 78.8C43 82.7 86 90.3 128.8 96.5C171.7 102.7 214.3 107.3 257.2 108.5C300 109.7 343 107.3 385.8 107.5C428.7 107.7 471.3 110.3 514.2 110.8C557 111.3 600 109.7 642.8 108C685.7 106.3 728.3 104.7 771.2 108.3C814 112 857 121 878.5 125.5L900 130L900 0L878.5 0C857 0 814 0 771.2 0C728.3 0 685.7 0 642.8 0C600 0 557 0 514.2 0C471.3 0 428.7 0 385.8 0C343 0 300 0 257.2 0C214.3 0 171.7 0 128.8 0C86 0 43 0 21.5 0L0 0Z" fill="#3e2d69"></path><path d="M0 54L21.5 54.3C43 54.7 86 55.3 128.8 59C171.7 62.7 214.3 69.3 257.2 68C300 66.7 343 57.3 385.8 55.7C428.7 54 471.3 60 514.2 62.5C557 65 600 64 642.8 69C685.7 74 728.3 85 771.2 82.7C814 80.3 857 64.7 878.5 56.8L900 49L900 0L878.5 0C857 0 814 0 771.2 0C728.3 0 685.7 0 642.8 0C600 0 557 0 514.2 0C471.3 0 428.7 0 385.8 0C343 0 300 0 257.2 0C214.3 0 171.7 0 128.8 0C86 0 43 0 21.5 0L0 0Z" fill="#302847"></path><path d="M0 31L21.5 31.3C43 31.7 86 32.3 128.8 31C171.7 29.7 214.3 26.3 257.2 24.8C300 23.3 343 23.7 385.8 29.2C428.7 34.7 471.3 45.3 514.2 50.7C557 56 600 56 642.8 52.8C685.7 49.7 728.3 43.3 771.2 43.7C814 44 857 51 878.5 54.5L900 58L900 0L878.5 0C857 0 814 0 771.2 0C728.3 0 685.7 0 642.8 0C600 0 557 0 514.2 0C471.3 0 428.7 0 385.8 0C343 0 300 0 257.2 0C214.3 0 171.7 0 128.8 0C86 0 43 0 21.5 0L0 0Z" fill="#232226"></path></svg>