<svg height="19px" version="1.1" viewbox="0 0 133 19" width="133px" xmlns:xlink="http://www.w3.org/1999/xlink" xmlns="http://www.w3.org/2000/svg">
  <g fill-rule="evenodd" fill="none" id="Page-1" stroke-width="1" stroke="none">
    <g fill-rule="nonzero" fill="#000000" id="logo">
      <path d="M0,5.82 L6.81,5.82 L6.81,18.71 L13.17,18.71 L13.17,5.82 L20,5.82 L20,0.94 L0,0.94 L0,5.82 Z M43,6.82 C43,3.94 41.23,0.99 35.11,0.99 L22.68,0.99 L22.68,18.76 L29.07,18.76 L29.07,12.9 L32.79,12.9 L36.53,18.71 L43.53,18.71 L39.24,12.15 C41.5290752,11.364014 43.0486228,9.189768 43,6.77 L43,6.82 Z M33.59,9.12 L29.07,9.12 L29.07,5 L33.59,5 C35.59,5 36.24,5.9 36.24,7 C36.24,8.1 35.61,9.07 33.56,9.07 L33.59,9.12 Z M52.92,11.77 L64.6,11.77 L64.6,7.77 L52.89,7.77 L52.89,5.24 L65,5.24 L65,0.93 L46.5,0.93 L46.5,18.7 L65.2,18.7 L65.2,14.4 L52.89,14.4 L52.92,11.77 Z M86.2,9.32 C88.75,8.79 89.89,7.22 89.89,5.41 C89.89,2.73 87.77,0.98 83.33,0.98 L69,0.98 L69,18.75 L83.41,18.75 C88.55,18.75 90.3,16.1 90.3,13.59 C90.3,11.08 88.9,9.67 86.18,9.27 L86.2,9.32 Z M75.39,4.94 L81.39,4.94 C82.84,4.94 83.24,5.62 83.24,6.34 C83.24,7.06 82.87,7.92 81.39,7.92 L75.39,7.92 L75.39,4.94 Z M81.63,14.8 L75.37,14.8 L75.37,11.47 L81.61,11.47 C82.93,11.47 83.61,12.15 83.61,13.07 C83.61,13.99 83,14.75 81.61,14.75 L81.63,14.8 Z M99.87,0.98 L93.46,0.98 L93.46,18.75 L111,18.75 L111,13.8 L99.84,13.8 L99.87,0.98 Z M120.48,14.45 L120.48,11.77 L132.18,11.77 L132.18,7.77 L120.48,7.77 L120.48,5.24 L132.61,5.24 L132.61,0.93 L114.06,0.93 L114.06,18.7 L132.75,18.7 L132.75,14.4 L120.48,14.45 Z" id="Shape"></path>
    </g>
  </g>
</svg>
